inDegrees=yes
name=ik_S53_A04_T01
DataType=double
version=3
OpenSimVersion=4.3-2021-08-27-4bc7ad9
endheader
time	pelvis_tilt	pelvis_list	pelvis_rotation	pelvis_tx	pelvis_ty	pelvis_tz	hip_flexion_r	hip_adduction_r	hip_rotation_r	knee_angle_r	knee_angle_r_beta	ankle_angle_r	subtalar_angle_r	mtp_angle_r	hip_flexion_l	hip_adduction_l	hip_rotation_l	knee_angle_l	knee_angle_l_beta	ankle_angle_l	subtalar_angle_l	mtp_angle_l	lumbar_extension	lumbar_bending	lumbar_rotation	arm_flex_r	arm_add_r	arm_rot_r	elbow_flex_r	pro_sup_r	wrist_flex_r	wrist_dev_r	arm_flex_l	arm_add_l	arm_rot_l	elbow_flex_l	pro_sup_l	wrist_flex_l	wrist_dev_l
0	0	0	0	0	0.9399999999999999	0	0	0	0	0	0	0	0	0	0	0	0	0	0	0	0	0	0	0	0	0	0	0	0	89.99999999963507	0	0	0	0	0	0	89.99999999869995	0	0
0.01666666666666667	21.67950236173414	12.7765858775841	32.13481089426246	0	0.9399999999999999	0	36.05116227866999	-12.60696979571857	-7.863937539373353	78.78586955814963	1.375072827836481	0	0	0	42.34983863200434	-9.93454314027726	-6.660000915480234	82.0755869049854	1.432489226998737	0	0	0	0	0	0	6.523565655590184	-6.523565655590183	1.205909956242123	32.27063967574967	88.79409011461574	0	0	6.523565655590184	-6.523565655590183	1.205909956242123	32.27063967574967	88.79409011390688	0	0
0.03333333333333333	21.67568268338475	12.75716852606567	32.15212159711054	0	0.9399999999999999	0	36.0940523688807	-12.60263149015498	-7.957998327605964	78.81975699246298	1.375664275140303	0	0	0	42.28791003891146	-10.28759349660816	-6.580688820375724	81.95710391743826	1.430421308758441	0	0	0	0	0	0	6.527862389402914	-6.527862389402913	1.206693763849786	32.28626058562486	88.79330630705408	0	0	6.527862389402914	-6.527862389402913	1.206693763849786	32.28626058562486	88.79330630634537	0	0
0.05	21.67715065350441	12.80065348294446	32.14944234422709	0	0.9399999999999999	0	36.09929283347962	-12.66342804852971	-7.955931539986715	78.84972324237985	1.376187284865827	0	0	0	42.42039607912736	-10.40832858460659	-6.496603698892848	82.12544865969434	1.43335947878923	0	0	0	0	0	0	6.532857131127548	-6.532857131127547	1.207602984964502	32.30432581312537	88.79239708599276	0	0	6.532857131127548	-6.532857131127547	1.207602984964502	32.30432581312537	88.79239708528419	0	0
0.06666666666666667	21.64720495417838	12.79312227485741	32.16491543728546	0	0.9399999999999999	0	36.1012993602148	-12.66479340528963	-7.95814808702666	78.78825032549338	1.375114380065354	0	0	0	42.40462876217817	-10.50019289746281	-6.470182577253852	82.00311987477626	1.431224438722446	0	0	0	0	0	0	6.674629927217408	-6.674629927217407	1.23217134902122	32.70356414589467	88.76782872336014	0	0	6.674629927217408	-6.674629927217407	1.23217134902122	32.70356414589467	88.76782872265618	0	0
0.08333333333333333	21.66100010600668	12.80316743314242	32.17507899931918	0	0.9399999999999999	0	36.11516529887989	-12.68329637390612	-7.991877234584562	78.83587320790694	1.37594555616276	0	0	0	42.38814022747571	-10.52072889485562	-6.469083233398217	82.03180933563905	1.431725164275124	0	0	0	0	0	0	6.786452089116729	-6.786452089116728	1.251265569773998	32.99464858533536	88.74873450371001	0	0	6.786452089116729	-6.786452089116728	1.251265569773998	32.99464858533536	88.7487345030096	0	0
0.09999999999999999	21.65226988043662	12.79381152169955	32.17221257723771	0	0.9399999999999999	0	36.1324412084147	-12.59871226529796	-7.974120050486318	78.83825538972577	1.37598713307888	0	0	0	42.34698707353365	-10.53686401553739	-6.525434014397435	81.97175195551678	1.430676965251868	0	0	0	0	0	0	6.882398038558877	-6.882398038558877	1.268589237439553	33.29454979501644	88.73141083705755	0	0	6.882398038558877	-6.882398038558877	1.268589237439553	33.29454979501644	88.73141083636041	0	0
0.1166666666666667	21.64272905888892	12.77817418689086	32.23218313539548	0	0.9399999999999999	0	36.12848396517806	-12.57295812839815	-7.937014747943001	78.8446463030571	1.376098675558721	0	0	0	42.34380555354318	-10.52956451554166	-6.5225855265631	81.97249768729853	1.430689980726797	0	0	0	0	0	0	6.882797819889398	-6.882797819889398	1.26866050345864	33.29591109879307	88.73133957104264	0	0	6.882797819889398	-6.882797819889398	1.26866050345864	33.29591109879307	88.7313395703455	0	0
0.1333333333333333	21.61603938905673	12.7308418571588	32.21518229042008	0	0.9399999999999999	0	36.20703165199586	-12.55421346947371	-7.856220510879861	78.87566208340955	1.376640003045947	0	0	0	42.37382980709064	-10.63535719008854	-6.602448396672682	81.97151439051085	1.430672818960327	0	0	0	0	0	0	6.886893610821542	-6.886893610821542	1.269405804140153	33.31053446886899	88.73059427040486	0	0	6.886893610821542	-6.886893610821542	1.269405804140153	33.31053446886899	88.73059426970785	0	0
0.15	21.61251246541435	12.71151465414397	32.23792995478485	0	0.9399999999999999	0	36.24444559836015	-12.30987100035399	-7.639117325455324	78.9014765768967	1.377090550952032	0	0	0	42.38465556026321	-10.64897648212317	-6.610280198217557	81.96893244875167	1.430627755575535	0	0	0	0	0	0	6.89095077092993	-6.89095077092993	1.270143719537632	33.32500168698656	88.7298563550507	0	0	6.89095077092993	-6.89095077092993	1.270143719537632	33.32500168698656	88.72985635435377	0	0
0.1666666666666667	21.60957610250204	12.70527521649976	32.32078713594721	0	0.9399999999999999	0	36.24080504343382	-12.22625694705748	-7.485273832050768	78.90894891005563	1.377220967768461	0	0	0	42.40078568977395	-10.63110445764229	-6.554261061425045	81.97473814969774	1.43072908417243	0	0	0	0	0	0	6.892129903807514	-6.892129903807514	1.270356851241481	33.32914594945483	88.72964322335932	0	0	6.892129903807514	-6.892129903807514	1.270356851241481	33.32914594945483	88.72964322266246	0	0
0.1833333333333333	21.60897602964394	12.67893555487793	32.27529287054779	0	0.9399999999999999	0	36.30086210825257	-11.98995323856139	-7.300994755510872	78.93806048198248	1.377729060549016	0	0	0	42.43461029824464	-10.70470465538944	-6.577291026195507	82.00490069523259	1.431255519902796	0	0	0	0	0	0	6.897242933453539	-6.897242933453539	1.271287466699034	33.3474018692915	88.72871260795635	0	0	6.897242933453539	-6.897242933453539	1.271287466699034	33.3474018692915	88.72871260725968	0	0
0.2	21.61503982057711	12.68098459503043	32.36278145311039	0	0.9399999999999999	0	36.29095427829382	-11.91877623660537	-7.123995268026037	78.94956240129571	1.377929806911331	0	0	0	42.45162123960114	-10.65754657717859	-6.500814463241062	82.00711758956878	1.431294212008131	0	0	0	0	0	0	6.898303787131129	-6.898303787131129	1.271478842866689	33.3511123640588	88.72852123179992	0	0	6.898303787131129	-6.898303787131129	1.271478842866689	33.3511123640588	88.72852123110326	0	0
0.2166666666666666	21.60577873754847	12.67744532089685	32.40584701921755	0	0.9399999999999999	0	36.30038013622728	-11.83073185613148	-6.995983617931151	78.96098958776156	1.378129248939399	0	0	0	42.46752449292629	-10.60502537794006	-6.488959727675736	82.01613891695364	1.431451663873897	0	0	0	0	0	0	6.899473156967007	-6.899473156967007	1.271690092126674	33.35521536377792	88.72830998255233	0	0	6.899473156967007	-6.899473156967007	1.271690092126674	33.35521536377792	88.7283099818557	0	0
0.2333333333333333	21.59654787450564	12.66119364082812	32.44361109633515	0	0.9399999999999999	0	36.30567120193255	-11.7975166824136	-6.881497564403209	78.96438651389325	1.378188536484844	0	0	0	42.48939975051909	-10.58832404224013	-6.463994455134517	82.01937919077673	1.431508217320776	0	0	0	0	0	0	6.90050090985013	-6.90050090985013	1.271875548665983	33.35881189567549	88.72812452602386	0	0	6.90050090985013	-6.90050090985013	1.271875548665983	33.35881189567549	88.7281245253273	0	0
0.25	21.54605992528661	12.64628871332581	32.41403679519932	0	0.9399999999999999	0	36.36416792933655	-11.77827397612095	-6.83507862871862	78.91880706481618	1.377393025027204	0	0	0	42.5054783306178	-10.60601486537702	-6.589461869230298	81.9685794367213	1.430621594353306	0	0	0	0	0	0	7.017227683432254	-7.017227683432255	1.293236555995702	33.74932810798158	88.70676351994733	0	0	7.017227683432254	-7.017227683432255	1.293236555995702	33.74932810798158	88.70676351925478	0	0
0.2666666666666667	21.55617654318074	12.61762763409308	32.47380906759084	0	0.9399999999999999	0	36.3437905664566	-11.77304523312438	-6.768517777885296	78.93000573727281	1.377588478733425	0	0	0	42.52742469550414	-10.58380758526599	-6.578104604899308	81.97101487682859	1.430664100801913	0	0	0	0	0	0	7.017666336605088	-7.017666336605089	1.293314546425907	33.75080447364652	88.70668552952165	0	0	7.017666336605088	-7.017666336605089	1.293314546425907	33.75080447364652	88.70668552882915	0	0
0.2833333333333333	21.51217216959331	12.60404210350585	32.45860392326677	0	0.9399999999999999	0	36.39871772158504	-11.75986309767271	-6.670235128504673	78.90989096046466	1.377237409649819	0	0	0	42.55047524877944	-10.5610976757774	-6.675286876272903	81.92841002705893	1.429920505896115	0	0	0	0	0	0	7.127338441201745	-7.127338441201744	1.313002849178137	34.09374149534522	88.68699722791949	0	0	7.127338441201745	-7.127338441201744	1.313002849178137	34.09374149534522	88.68699722723069	0	0
0.3	21.53144946150427	12.59534739984216	32.50209704005676	0	0.9399999999999999	0	36.37850597931695	-11.7369360337818	-6.57156457180808	78.92403059140996	1.377484192764831	0	0	0	42.56667927811126	-10.52446544080433	-6.630369623157437	81.93145176542927	1.429973594245662	0	0	0	0	0	0	7.127940416228117	-7.127940416228117	1.313109847421585	34.09575833162046	88.68689022968231	0	0	7.127940416228117	-7.127940416228117	1.313109847421585	34.09575833162046	88.68689022899349	0	0
